HIERARCHY
ROOT Hips
{
	OFFSET -0.001795 -0.223333 0.028219
	CHANNELS 6 Xposition Yposition Zposition Zrotation Yrotation Xrotation 
	JOINT LeftUpLeg
	{
		OFFSET 0.069520 -0.091406 -0.006815
		CHANNELS 3 Zrotation Yrotation Xrotation
		JOINT LeftLeg
		{
			OFFSET 0.034277 -0.375199 -0.004496
			CHANNELS 3 Zrotation Yrotation Xrotation
			JOINT LeftFoot
			{
				OFFSET -0.013596 -0.397961 -0.043693
				CHANNELS 3 Zrotation Yrotation Xrotation
				JOINT LeftToe
				{
					OFFSET 0.026358 -0.055791 0.119288
					CHANNELS 3 Zrotation Yrotation Xrotation
					End Site
					{
						OFFSET 0.000000 0.000000 0.000000
					}
				}
			}
		}
	}
	JOINT RightUpLeg
	{
		OFFSET -0.067670 -0.090522 -0.004320
		CHANNELS 3 Zrotation Yrotation Xrotation
		JOINT RightLeg
		{
			OFFSET -0.038290 -0.382569 -0.008850
			CHANNELS 3 Zrotation Yrotation Xrotation
			JOINT RightFoot
			{
				OFFSET 0.015774 -0.398415 -0.042312
				CHANNELS 3 Zrotation Yrotation Xrotation
				JOINT RightToe
				{
					OFFSET -0.025372 -0.048144 0.123348
					CHANNELS 3 Zrotation Yrotation Xrotation
					End Site
					{
						OFFSET 0.000000 0.000000 0.000000
					}
				}
			}
		}
	}
	JOINT Spine
	{
		OFFSET -0.002533 0.108963 -0.026696
		CHANNELS 3 Zrotation Yrotation Xrotation
		JOINT Spine1
		{
			OFFSET 0.005487 0.135180 0.001092
			CHANNELS 3 Zrotation Yrotation Xrotation
			JOINT Spine2
			{
				OFFSET 0.001457 0.052922 0.025425
				CHANNELS 3 Zrotation Yrotation Xrotation
				JOINT Neck
				{
					OFFSET -0.002778 0.213870 -0.042857
					CHANNELS 3 Zrotation Yrotation Xrotation
					JOINT Head
					{
						OFFSET 0.005152 0.064970 0.051349
						CHANNELS 3 Zrotation Yrotation Xrotation
						End Site
						{
							OFFSET 0.000000 0.000000 0.000000
						}
					}
				}
				JOINT LeftShoulder
				{
					OFFSET 0.078845 0.121749 -0.034090
					CHANNELS 3 Zrotation Yrotation Xrotation
					JOINT LeftArm
					{
						OFFSET 0.090977 0.030469 -0.008868
						CHANNELS 3 Zrotation Yrotation Xrotation
						JOINT LeftForeArm
						{
							OFFSET 0.259612 -0.012772 -0.027456
							CHANNELS 3 Zrotation Yrotation Xrotation
							JOINT LeftHand
							{
								OFFSET 0.249234 0.008986 -0.001171
								CHANNELS 3 Zrotation Yrotation Xrotation
								End Site
								{
									OFFSET 0.000000 0.000000 0.000000
								}
							}
						}
					}
				}
				JOINT RightShoulder
				{
					OFFSET -0.081759 0.118833 -0.038615
					CHANNELS 3 Zrotation Yrotation Xrotation
					JOINT RightArm
					{
						OFFSET -0.096012 0.032551 -0.009143
						CHANNELS 3 Zrotation Yrotation Xrotation
						JOINT RightForeArm
						{
							OFFSET -0.253742 -0.013329 -0.021401
							CHANNELS 3 Zrotation Yrotation Xrotation
							JOINT RightHand
							{
								OFFSET -0.255298 0.007772 -0.005559
								CHANNELS 3 Zrotation Yrotation Xrotation
								End Site
								{
									OFFSET 0.000000 0.000000 0.000000
								}
							}
						}
					}
				}
			}
		}
	}
}
MOTION
Frames: 7
Frame Time: 0.050000
0.069513 0.947240 0.070351 0.725701 12.073714 5.646654 6.111181 -0.243344 2.581202 -5.142036 0.414943 2.002551 7.989751 17.857829 12.435211 0.000000 0.000000 0.000000 -5.969315 0.581910 -20.893168 2.275792 -0.355714 13.798843 9.873648 5.899795 30.969322 0.000000 0.000000 0.000000 19.273953 -5.835900 20.407136 1.163274 0.321449 -14.984257 2.879861 -6.808742 16.879617 23.740181 -19.888434 -3.741094 0.000000 0.000000 0.000000 -9.440086 -32.645671 14.327431 -19.803944 -22.825820 -0.162342 6.972861 -58.061652 -1.478971 0.000000 0.000000 0.000000 29.683811 19.581955 10.570740 26.935970 36.955465 3.482788 4.859509 40.010337 3.192283 0.000000 0.000000 0.000000 
0.070371 0.947182 0.069928 0.639415 12.288337 5.428355 6.003776 -0.234490 2.634601 -5.075794 0.406476 2.317642 8.268777 18.192931 11.991330 0.000000 0.000000 0.000000 -5.943430 0.570671 -20.943177 2.247719 -0.360542 13.975542 10.055542 5.636305 32.223974 0.000000 0.000000 0.000000 19.365749 -5.863308 20.404878 0.766935 0.447208 -14.838969 2.948171 -7.149319 17.268701 24.139081 -20.544017 -3.141412 0.000000 0.000000 0.000000 -9.647707 -32.656308 14.413795 -19.442046 -23.676402 -0.110535 7.812594 -57.335884 -1.905959 0.000000 0.000000 0.000000 29.096837 19.814757 10.588687 26.146410 37.223912 3.317481 2.984375 39.042868 2.448604 0.000000 0.000000 0.000000 
0.070929 0.947128 0.069391 0.769757 12.904106 5.327678 5.834304 -0.228529 2.618976 -4.988959 0.390093 2.641645 8.061686 17.799215 11.168398 0.000000 0.000000 0.000000 -6.106989 0.500022 -21.057932 2.454858 -0.443574 14.253896 9.133717 4.140605 33.200286 0.000000 0.000000 0.000000 19.330649 -5.874063 20.340568 1.160480 0.336813 -14.701403 2.405801 -7.174844 17.181130 24.588374 -21.001381 -2.962483 0.000000 0.000000 0.000000 -9.772830 -33.026117 14.557280 -19.632017 -24.422099 0.008509 8.111309 -56.389576 -2.055555 0.000000 0.000000 0.000000 29.149156 19.700110 10.670564 24.648071 37.364327 2.949349 2.228827 38.124221 2.133445 0.000000 0.000000 0.000000 
0.071095 0.947358 0.068903 0.717769 13.362818 5.229813 6.031364 -0.252571 2.564114 -4.888097 0.373133 3.204441 7.347590 16.598775 10.086207 0.000000 0.000000 0.000000 -6.163192 0.459658 -21.217269 2.726238 -0.539817 14.497701 8.651925 3.158556 34.342909 0.000000 0.000000 0.000000 19.581377 -5.960201 20.289267 1.098145 0.357016 -14.454802 2.227901 -7.494510 17.262935 24.961925 -21.487688 -2.619941 0.000000 0.000000 0.000000 -10.162258 -33.029365 14.687862 -19.316293 -25.616436 0.106325 9.646281 -55.258724 -2.792979 0.000000 0.000000 0.000000 28.707296 20.113768 10.872084 24.239227 37.625980 2.888905 1.067103 37.208406 1.694608 0.000000 0.000000 0.000000 
0.070784 0.947947 0.068545 0.855264 13.683405 5.260979 5.796664 -0.242258 2.357373 -4.799407 0.358047 3.543116 7.429998 16.688894 9.854884 0.000000 0.000000 0.000000 -6.172551 0.436577 -21.297182 2.605330 -0.526264 14.698738 8.190177 2.618962 34.397949 0.000000 0.000000 0.000000 19.695560 -6.162836 20.803030 0.944353 0.438764 -15.104450 2.058677 -7.626194 17.957055 24.934874 -21.483495 -2.798344 0.000000 0.000000 0.000000 -10.141663 -33.169530 14.735832 -19.475979 -26.363296 0.178225 11.534922 -54.023130 -3.683162 0.000000 0.000000 0.000000 28.179401 20.252400 10.955019 23.955453 38.237137 2.856158 0.073036 36.608918 1.357998 0.000000 0.000000 0.000000 
0.070122 0.948570 0.068277 0.936695 13.806786 5.655150 5.789466 -0.261474 1.783593 -4.745355 0.347267 3.948322 7.134375 16.216885 9.587456 0.000000 0.000000 0.000000 -6.146119 0.436632 -21.521903 2.544630 -0.505766 14.431169 7.842266 2.282994 34.220930 0.000000 0.000000 0.000000 19.869775 -6.294726 20.962802 0.940564 0.434945 -15.007545 1.724370 -7.472349 17.691762 24.473844 -21.289344 -2.135914 0.000000 0.000000 0.000000 -9.980837 -33.080695 14.635216 -19.759473 -27.031145 0.303878 13.174177 -52.466115 -4.361266 0.000000 0.000000 0.000000 27.779438 20.426863 11.092016 24.635743 38.912907 3.153216 -0.506352 35.798270 1.170321 0.000000 0.000000 0.000000 
0.069100 0.949121 0.067909 1.168678 13.895390 5.840207 5.647773 -0.259673 1.529214 -4.736032 0.341764 4.296745 6.855945 15.743219 9.255326 0.000000 0.000000 0.000000 -6.231094 0.413613 -21.609137 2.338202 -0.452179 14.371723 7.852363 2.386139 34.029460 0.000000 0.000000 0.000000 19.840153 -6.444961 21.452283 0.669033 0.542284 -15.661875 1.450677 -7.659553 18.350034 23.638200 -20.812559 -1.686118 0.000000 0.000000 0.000000 -9.841870 -32.754406 14.463382 -19.985586 -27.262175 0.324298 14.786460 -50.887129 -4.969447 0.000000 0.000000 0.000000 27.687811 20.499020 11.122341 25.120071 39.672718 3.368943 -0.438566 35.541521 1.195433 0.000000 0.000000 0.000000 
